<?xml version="1.0" encoding="UTF-8" standalone="no"?>
<!-- Created with Inkscape (http://www.inkscape.org/) -->

<svg
   version="1.1"
   id="svg1"
   width="576"
   height="853.33331"
   viewBox="0 0 576 853.33331"
   sodipodi:docname="dedo de dios contorno.svg"
   inkscape:version="1.3.2 (091e20e, 2023-11-25, custom)"
   inkscape:export-filename="dedo de dios contorno.svg"
   inkscape:export-xdpi="96"
   inkscape:export-ydpi="96"
   xmlns:inkscape="http://www.inkscape.org/namespaces/inkscape"
   xmlns:sodipodi="http://sodipodi.sourceforge.net/DTD/sodipodi-0.dtd"
   xmlns="http://www.w3.org/2000/svg"
   xmlns:svg="http://www.w3.org/2000/svg">
  <defs
     id="defs1" />
  <sodipodi:namedview
     id="namedview1"
     pagecolor="#ffffff"
     bordercolor="#000000"
     borderopacity="0.25"
     inkscape:showpageshadow="2"
     inkscape:pageopacity="0.0"
     inkscape:pagecheckerboard="0"
     inkscape:deskcolor="#d1d1d1"
     inkscape:zoom="1"
     inkscape:cx="395"
     inkscape:cy="603.5"
     inkscape:window-width="1920"
     inkscape:window-height="1017"
     inkscape:window-x="-8"
     inkscape:window-y="-8"
     inkscape:window-maximized="1"
     inkscape:current-layer="g1" />
  <g
     inkscape:groupmode="layer"
     inkscape:label="Image"
     id="g1">
    <path
       style="fill:#000000"
       d="m 234.11376,754.67015 c -7.56476,-1.34903 -6.38681,-0.0945 -3.85962,-0.19108 -11.6,0.31765 -1.86514,-4.87808 4.6,-3.04794 0.88,0.88 2.26235,0.81875 3.52124,0.81875 1.25889,0 2.85654,0.23661 3.10099,-0.42906 l 35.75909,-1.81138 c 1.33919,-0.16129 3.07906,-1.50138 5.26095,-1.69002 0.52654,-0.0455 0.97625,-0.26114 3.15633,-0.26114 2.79329,0 0.25834,0.0477 3.81833,0.0774 7.54663,-1.54204 3.24414,3.99706 2.00974,1.4e-4 1.80476,0 9.01283,-0.55863 9.45039,-0.11692 1.37868,1.39175 0.54172,-0.19188 20.87722,0.53586 8.07658,-1.93687 11.75827,-0.44949 14.80444,0.14308 l -14.16892,1.66667 c -2.3655,0 -3.89607,0.40483 -3.40127,0.89963 z M 92.205903,754.19164 c -8.33925,4.07085 -3.75944,4.30495 -17.40992,4.18721 -7.33013,-0.0127 -8.55116,-0.37031 -9.1555,-2.68134 -0.42506,-1.62543 -1.80802,-2.6587 -3.54184,-2.64625 l -18.47974,-15.72015 c -3.62774,-5.49209 18.95574,11.02522 21.01619,11.96402 1.81431,0.82666 3.28572,2.63183 3.28572,4.03103 0,2.30055 0.93104,2.49869 10.10768,2.1511 5.55922,-0.21058 10.1438,-1.13372 10.75118,-1.42406 -2.98921,1.70582 1.22505,-2.28603 6.51842,-3.4005 l 4.65351,0.38434 c 2.100487,1.09548 4.655107,0.69196 5.994677,0.69196 1.33956,0 3.20238,-0.10513 3.663,0.64017 0.46062,0.74529 1.84825,0.60628 2.68645,0.0882 0.8382,-0.51803 3.2568,-0.28149 5.85125,-0.10981 2.59446,0.17167 6.00715,0.36947 7.10715,1.47219 1.77823,1.78263 -3.61245,-0.72066 -7.44387,1.39617 z m 99.869187,0.32958 c -3.21514,-0.9293 -7.26514,-1.33337 -9,-0.89795 -1.88706,0.47362 -59.30688,4.23104 -61.19163,-0.74217 -0.35045,-0.92471 60.54249,-1.1513 65.70402,-0.63092 4.21666,0.42512 8.26666,0.76655 9,0.75874 0.73333,-0.008 6.73333,-0.21544 13.33333,-0.4614 6.6,-0.24597 25.347,-1.09137 26.23514,0.21024 1.74392,2.55578 -10.88371,1.46854 -15.56847,1.54228 -11.69384,0.18399 2.50613,-0.49818 -1.33535,-0.19415 -0.73334,0.058 -3.3276,0.30095 -5.76504,0.5398 -2.87514,0.28174 -5.65627,0.62842 -8.06727,-0.11862 -1.04254,-0.32303 -1.73679,-0.12076 -3.30833,-0.0692 z m 179.09611,-5.68337 c -1.9306,0.0287 -5.1097,0.19295 -6.6578,0.19295 h -14.00461 c -1.50995,0 -20.30948,1.25789 -21.52551,0.3188 -0.65995,-0.50966 22.02572,-2.56783 24.04418,-2.16414 2.01845,0.4037 6.79524,0.16595 10.61494,-0.52831 3.8198,-0.69427 6.9451,-0.82742 6.9451,-0.29589 0,0.53153 1.65,0.73249 3.6666,0.44659 2.0167,-0.28591 10.5667,-1.68205 19,-3.10254 8.4334,-1.42049 23.7334,-3.7477 34,-5.17156 10.2667,-1.42387 21.3667,-2.58361 24.6667,-2.57721 3.3,0.006 10.2,-0.71411 15.3333,-1.60115 5.1334,-0.88704 11.5778,-1.76816 14.321,-1.95806 2.7432,-0.18989 6.0206,0.41003 7.283,1.33315 3.9061,8.6999 -3.0484,-0.98079 -3.7741,-1.35645 -1.5968,0.34959 14.5963,1.83544 22.9863,2.36312 10.8493,0.68237 -5.0321,6.18978 -3.6844,1.05441 0.5723,-2.1808 7.8449,-0.29957 20.0242,-3.85229 l -2.2277,3.6738 c -13.2717,3.6446 -25.5581,2.77451 -37.8232,1.0844 -2.3484,-0.32361 1.2043,-1.59233 -4.4119,-1.20465 -3.6812,0.25411 -6.6932,0.85411 -6.6932,1.33333 0,0.47923 -1.35,0.96704 -3,1.08404 -1.65,0.11699 -8.4,0.57304 -15,1.01343 -6.6,0.44039 -17.1,1.42104 -23.3333,2.17922 -6.2333,0.75817 -13.262,1.89789 -15.6194,2.5327 -2.3573,0.63481 -6.6295,0.83987 -9.4938,0.45569 -3.411,-0.45752 -4.9726,0.7541 -6.2454,0.98052 -8.2982,1.47613 -6.8303,1.25551 -13.6414,2.73432 -7.5108,1.63245 -9.9288,0.95694 -15.7496,1.03178 z m -27.50039,-0.71787 c 0.9625,-0.38516 2.1125,-0.33779 2.55556,0.10527 0.44305,0.44305 -0.34445,0.75818 -1.75,0.70029 -1.55326,-0.064 -1.8692,-0.37992 -0.80556,-0.80556 z M 482.5875,719.83625 c 0,-0.657 -2.4637,-0.54937 -5.4332,-0.91714 -9.5652,-1.18464 -6.7579,-3.71848 -6.5668,-7.05839 0.038,-0.64241 -0.9,-3.24973 -2,-4.16265 l -8.3351,-7.4141 c -1.623,-1.18673 -2.8054,-0.0831 -4.8069,-0.33215 -3.269,-0.40672 -3.2963,-1.56211 -5.3528,-3.41675 -2.2753,-2.17799 -3.9405,-3.58428 -4.8647,-4.69782 -0.9241,-1.11353 -3.5274,-1.47313 -4.2123,-1.47313 -0.6849,0 -2.9953,1.91609 -5.1343,4.25799 -2.139,2.34189 -7.9296,5.91601 -8.3745,5.47107 -0.445,-0.44493 3.8176,-4.28098 4.9787,-6.05315 1.1612,-1.77216 0.8778,-2.36448 1.4742,-3.14683 0.4738,-0.62148 0.032,-0.1899 0.7193,-0.76676 0.5786,-0.48562 2.0985,-1.08992 3.9604,-1.61755 1.862,-0.52763 5.0481,-0.32718 7.0803,0.44545 2.0321,0.77263 2.43,1.99898 2.8787,2.72534 0.7551,1.22234 -0.3085,-0.20144 0.6446,0.90214 2.3982,2.77677 -0.1494,-0.1294 0.9081,1.00043 2.3593,-0.0879 4.7993,2.04653 5.6122,2.1152 1.4667,0 2.7838,0.85638 3.5042,1.35508 1.8602,1.2878 3.4698,2.83347 4.3005,3.20447 1.294,0.41335 4.0617,2.89845 6.1505,5.52246 2.4966,3.13628 2.5446,6.33105 3.0746,8.13395 0.8752,2.97687 3.3596,3.48274 15.681,4.07726 4.8083,0.23201 13.0661,0.3558 19.4466,-0.16772 1.8333,-0.33492 5.3375,-1.93363 8,-1.89747 13.0934,0.17781 13.2568,0.55968 17.7531,3.10517 3.8639,2.07539 -15.9986,19.94296 -13.0283,15.77028 12.3811,-17.3933 12.4756,-16.28837 -3.6492,-15.80582 -0.6587,0.0197 -2.1431,-0.15364 -3.727,0.69402 -1.9871,1.06348 -6.982,1.25037 -16.1142,0.60293 z M 43.095043,737.42448 c -0.88,-0.88 1.78203,-20.55397 2.32159,-20.717 0.68241,-0.2062 0.83594,-0.51171 2.08874,-1.0833 1.18914,-0.54255 1.84538,-0.0255 1.42878,-0.70014 -0.41659,-0.67462 1.16172,-0.34323 2.76212,-1.43842 2.95328,-2.021 6.64043,-7.52675 6.6698,-3.40267 0.0125,1.75036 -8.809,6.94784 -9.44545,6.94784 -1.13527,0.97889 0.0217,1.4379 -0.76768,0.58694 0.14572,2.03904 -4.1779,20.68675 -5.0579,19.80675 z M 413.6077,710.70818 c -3.2401,-3.53959 -4.1674,-5.81362 -4.3536,-6.49359 -0.1832,-0.50322 -0.9963,-2.07462 -2.214,-3.4202 -3.8986,-2.86006 -7.146,-10.37181 1.1696,-2.67459 0.9006,0.83366 3.6438,3.90076 1.9635,3.75499 -3.5138,-0.30482 -0.1246,-6.40859 1.3667,1.84357 0.3865,1.47809 1.2876,3.04886 2.0023,3.4906 0.7148,0.44173 2.7884,0.006 4.608,-0.96747 2.1358,-2.06515 0.6701,-0.95971 7.1039,-4.43797 1.0189,-0.55084 6.2708,-5.23094 7.0826,-5.23094 0.8118,0 -4.4948,4.07407 -4.9399,5.23405 z M 56.684253,708.69751 c 0.51873,-1.65 2.05916,-5.09111 3.42318,-7.64692 1.86104,-3.48707 2.48005,-3.96962 2.48005,-1.93333 l -4.04154,9.58028 c -0.66322,1.65 -11.11936,8.62176 -10.5842,6.93198 0.13276,-0.4192 8.20379,-5.28198 8.72252,-6.93198 z M 402.5875,697.13375 c -0.4252,-0.35587 -1.8197,-1.24102 -3.3961,-2.55555 -6.0281,-5.02683 0.2799,-1.33311 -7.2331,-7.50215 -3.8512,-3.16225 -3.0675,-4.28136 -4.712,-5.19707 -1.1887,-0.45611 -1.7877,-1.43354 -1.3313,-2.17205 0.4564,-0.73852 0.7283,-4.7899 2.1264,-1.34275 0.268,0.66072 1.6688,1.05 2.1239,2.33333 0.4551,1.28333 1.5697,3.53985 2.8315,4.66667 6.4128,5.72688 2.7029,2.16825 4.2573,3.66666 2.0818,2.68868 0.3149,1.41427 5.2728,4.37052 3.7306,2.22443 6.632,9.23171 0.061,3.73239 z M 67.131563,689.69751 c 0.54253,-2.2 1.54206,-4.2 2.22117,-4.44444 0.67911,-0.24445 1.23475,-1.29445 1.23475,-2.33334 0,-1.03889 0.55513,-1.88889 1.23362,-1.88889 0.6785,0 1.06147,2.41703 0.85105,5.37118 -0.21042,2.95414 -0.76555,5.75414 -1.23362,6.22222 -0.46808,0.46808 -8.52004,9.1764 -8.52004,8.23103 0,-1.3584 -0.46576,-1.3351 -2.22117,0.11111 -2.01201,1.65762 5.54071,-7.64553 6.43424,-11.26887 z m 2.46896,-12.33333 c -0.59443,-1.28334 -1.05747,-3.32926 -1.02898,-4.5465 0.0285,-1.21725 1.16887,-3.44752 2.53418,-4.95616 1.47264,-1.62725 2.19372,-3.8468 1.77273,-5.45664 -0.3903,-1.49251 0.0436,-3.16224 0.96413,-3.71051 0.92057,-0.54827 2.02266,-3.21979 2.44908,-5.93671 0.62107,-3.95715 0.31194,-5.08692 -1.55392,-5.67912 -1.76777,-0.56107 -2.2355,-1.92944 -1.94039,-5.67669 0.21386,-2.71558 0.6853,-5.70997 1.04764,-6.65421 0.36234,-0.94424 3.15384,-4.20647 3.96327,-4.90138 1.74113,-1.4948 0.2981,3.7393 -1.46212,7.26769 -1.12031,2.24571 -1.62432,4.49571 -1.12003,5 0.50429,0.50429 1.61569,0.91689 2.46977,0.91689 0.86759,0 1.62115,2.13303 1.70757,4.83351 0.0851,2.65842 -0.61752,7.07972 -1.56134,9.82511 -0.94382,2.74538 -1.43209,5.73155 -1.08505,6.63594 0.34705,0.90438 -0.89914,2.64691 -2.76931,3.87229 -1.99695,1.30845 -3.4003,3.48093 -3.4003,5.26389 0,1.66976 1.18177,3.4638 1.6,4.63593 0.54083,1.51571 0.29286,5.82444 -0.86298,5.82444 -0.8542,0 -1.12956,-5.27444 -1.72399,-6.55777 z M 384.7744,676.05455 c 0.3589,-1.37222 -0.4252,-3.42941 -1.7715,-4.64779 -1.3285,-1.20224 -3.0154,-2.37865 -3.7488,-2.61424 -2.3335,-0.7497 -6.2745,-10.32987 -6.2745,-12.39132 0,-7.88616 5.7869,7.95425 7.3539,9.23282 2.4257,1.97925 2.3437,2.14073 4.0008,4.06562 0.8726,0.94489 1.0851,1.06925 1.3264,1.52306 0.5288,0.99434 0.5637,0.65643 1.3959,2.85337 0.6849,1.80781 0.7877,6.27181 -0.071,6.55741 -0.9511,0.31625 -2.6029,-3.07957 -2.2109,-4.57893 z M 371.9816,653.2568 c -0.8066,-2.99566 -2.0503,-5.80739 -2.7637,-6.2483 -0.7134,-0.44091 -1.2971,-2.19277 -1.2971,-3.89304 0,-1.70026 -0.9,-3.83831 -2,-4.75123 -1.1,-0.91292 -2.0082,-3.23639 -2.0182,-5.16326 -0.01,-1.92688 0.3939,-5.2761 -0.8063,-6.44266 -4.45547,-4.33067 -1.3095,-1.66839 -2.7206,-2.79823 -0.6062,-0.48541 -0.473,-1.1151 -1.1888,-1.33105 -0.63593,-0.19187 -1.95757,-1.75696 -2.42062,-5.13525 -0.46304,-3.37829 -2.15274,-8.31447 -3.75488,-10.96928 -1.60215,-2.65482 -4.60295,-6.79782 -6.66846,-9.20667 -2.0655,-2.40885 -3.75546,-5.24501 -3.75546,-6.30259 0,-1.05758 -2.91371,-1.95567 -3.33334,-4.10695 -2.04952,-10.50714 -0.13382,0.95857 -1.35882,-6.54406 -0.50216,-2.93333 -1.1178,-9.44928 -1.36809,-14.47989 l -1.27369,-15.52011 c 0.19033,-1.83333 0.40273,-4.18995 1.289,-6.66667 0.49184,-1.37447 0.38701,-6.50642 -1.38612,-12.17701 -1.27515,-3.93598 -2.88793,-8.43482 -3.58396,-9.99744 -0.69603,-1.56262 -0.8871,-4.03337 -0.42461,-5.49056 0.4625,-1.45719 -0.72397,-4.10679 -0.49339,-6.15888 0.60893,-5.41914 0.7522,-2.43475 0.97331,-5.84277 0.0833,-1.28334 0.33861,-4.42608 -0.51181,-6.70372 -1.9756,-5.29114 -1.01127,-1.76615 -2.2866,-5.11242 -2.83629,-7.44199 -3.64441,-2.47471 1.71379,-14.05904 -2.09524,-8.84954 -0.60603,-3.05167 -1.79822,-6.79149 -0.64206,-2.01412 -2.17372,-8.03396 -2.56981,-15.42796 -0.90216,-6.38625 -1.37939,-12.92028 -2.1023,-15.86866 -0.57358,0 0.69283,1.37795 -0.19842,-2.1973 -0.84411,-3.38614 -1.92697,-9.70613 -2.73052,-14.83946 -0.80355,-5.13333 -1.91501,-12.63333 -2.46991,-16.66667 -0.57226,-4.15954 -0.46459,-8.55171 0.24879,-10.14851 0.89804,-2.01012 0.64091,-4.00794 -0.89912,-6.98603 -1.18626,-2.29397 -1.82946,-4.58061 -2.04103,-4.97291 -3.55576,-6.5931 -2.31105,-4.24079 -4.56703,-8.92812 -1.54119,-3.0971 -2.808,-8.15034 -2.81512,-11.22942 -0.99132,-5.60477 -1.13477,-10.18407 -0.88687,-15.73503 0.13904,-3.66667 -0.11062,-8.91922 -0.55479,-11.67234 -0.53893,-3.3404 -0.7483,-1.42072 -1.59784,-4.06047 -1.58582,-4.92756 -2.55997,-8.1662 -3.01508,-8.90258 -8.00793,-10.58848 7.64912,9.59715 -5.29171,-6.62805 -0.38339,-0.48069 -0.9,-1.46329 -2,-1.8854 -1.1,-0.42211 -2,-1.72171 -2,-2.88801 0,-1.16629 -0.59312,-1.75396 -1.31806,-1.30593 -0.72493,0.44804 -1.00316,-0.006 -0.61828,-1.00898 0.38487,-1.00297 -0.14192,-3.44595 -1.17066,-5.42884 -1.09409,-2.10886 -1.61822,-5.78863 -1.26279,-8.86564 0.44322,-3.83707 -0.33702,-7.2572 -2.88368,-12.6404 -1.92022,-4.05902 -3.9532,-7.38003 -4.51774,-7.38003 -0.56453,0 -1.77907,-2.08143 -2.69898,-4.6254 -0.91991,-2.54396 -1.54546,-8.14758 -1.39012,-12.45247 0.15535,-4.30489 -0.13495,-8.50244 -0.6451,-9.32789 -0.51016,-0.82545 -1.02829,-17.27183 -1.1514,-36.54753 -0.18745,-29.34905 0.11301,-35.71878 1.84816,-39.18065 1.22381,-2.44169 1.80624,-5.98945 1.4228,-8.66667 -0.35707,-2.493 -0.24757,-4.47054 -0.27942,-5.44731 -0.0309,-0.946 -0.0202,0.56985 0.0542,-0.44757 0.0765,-1.04575 -0.0556,-2.0247 -0.0556,-3.71976 0,-1.69505 -1.2,-4.36997 -2.66667,-5.94425 -1.92435,-2.06554 -2.66667,-4.70533 -2.66667,-9.48303 0,-3.64138 0.69914,-9.6495 1.55363,-13.35138 1.20332,-5.21304 1.17399,-9.28245 -0.13006,-18.04766 -1.10009,-7.39436 -2.58155,-12.352232 -4.27406,-14.303719 -1.80535,-2.08158 -4.00362,-2.958193 -7.25366,-2.892562 -2.5648,0.05179 -4.40357,-0.165533 -4.08616,-0.482947 0.31742,-0.317414 -0.77871,-2.040085 -2.43584,-3.828158 -1.65713,-1.788073 -3.94801,-3.251041 -5.09084,-3.251041 -1.14283,0 -3.98135,1.903474 -6.30782,4.229942 -4.22994,4.229942 -4.22994,4.229942 -3.39542,15.666665 0.45898,6.2902 0.81836,14.43673 0.79861,18.10339 -0.0197,3.66667 -0.0966,9.94334 -0.17088,13.94815 -0.0742,4.00481 -1.25429,10.12122 -2.62235,13.59201 -1.91025,4.84633 -2.57607,10.58163 -2.8696,24.71852 -0.21022,10.12439 0.43363,25.60799 1.43077,34.40799 0.99714,8.8 2.0112,26.63904 2.25345,39.64231 0.27236,14.61907 1.01825,24.54214 1.95436,26 l 1.31254,6.6662 c 0,1.80761 -0.97649,3.39852 -2.33333,3.80149 -1.28334,0.38113 -4.03196,1.5623 -6.10806,2.62482 -2.07609,1.06251 -4.57842,1.93184 -5.56072,1.93184 -0.98231,0 -2.17814,1.78536 -2.65741,3.96747 -0.47927,2.18211 -0.0288,4.45802 -0.0138,5.35508 0.20862,12.49396 -0.53398,1.40233 0.3106,5.82038 0.43799,2.2912 -0.42511,3.94989 -3.1849,6.12068 -3.62049,2.84781 -3.79725,3.5084 -4.05032,15.1366 -0.14553,6.68736 0.31482,12.857 1.02301,13.71031 0.70819,0.85332 0.91307,2.52754 0.45529,3.72048 -0.45778,1.19295 -1.66813,2.169 -2.68967,2.169 -1.02154,0 -1.85735,-0.95932 -1.85735,-2.13183 0,-1.1725 -0.92648,-4.08424 -2.05884,-6.47052 -1.68005,-3.54044 -2.66393,-4.22302 -5.34763,-3.71 -2.19187,0.419 -3.56769,1.79889 -4.12501,4.13719 -0.87776,4.65158 -3.63532,6.0209 -6.13518,10.10614 -0.73092,1.19501 -2.33334,2.18739 -2.33334,3.61298 0,1.4256 -2.05732,4.51141 -4.57182,6.85735 -2.5145,2.34595 -7.60091,10.11536 -11.30312,17.26536 l -9.16533,19.75788 c -0.7239,1.58833 -3.43664,5.31831 -8.0936,8.12998 -4.65696,2.81168 -8.79082,5.11214 -9.18634,5.11214 -0.39553,0 -1.48692,1.05 -2.42531,2.33333 -0.9384,1.28333 -2.20598,2.33333 -2.81685,2.33333 -0.61086,0 -3.05923,2.03899 -5.44081,4.53109 -3.1526,3.29889 -4.33015,5.76777 -4.33015,9.07869 0,2.50118 0.5,4.23858 1.11111,3.8609 0.61111,-0.37769 1.11398,0.3369 1.11749,1.58797 0.004,1.25108 -1.72371,3.79101 -3.83827,5.6443 -2.11455,1.85329 -3.94316,4.67755 -4.06358,6.27613 -0.12042,1.59858 -0.46463,2.66082 -0.76491,2.36054 -0.30028,-0.30028 -1.37454,0.2826 -2.38724,1.2953 -1.0127,1.0127 -1.84127,3.0559 -1.84127,4.54044 0,1.48454 1.13586,4.06447 1.52831,6.05343 2.28037,11.55716 0.81944,4.24593 2.3138,12.35919 0.90462,4.91142 -0.0682,9.58457 0.0414,10.20288 0.10961,0.6183 -0.53988,3.1683 -1.44329,5.66666 -0.90342,2.49837 -2.41555,4.29723 -3.28488,4.54248 -7.39778,2.08703 4.21633,-3.19464 -7.13244,3.95722 -1.38477,0.87267 -2.93493,4.2755 -4.80574,6.29414 -1.87081,2.01864 -3.73232,5.32444 -4.13667,7.34621 -0.40436,2.02178 -2.35984,4.13918 -3.5584,5.51412 -2.03319,2.33241 1.25865,-6.90229 2.56655,-9.70647 1.72846,-3.7307 4.04277,-7.12849 5.14292,-7.55066 1.10014,-0.42217 2.34762,-1.862 2.77217,-3.19962 0.42454,-1.33763 2.46818,-3.02338 4.54142,-3.74612 2.32432,-0.81026 4.26484,-2.76993 5.06148,-5.11144 0.71058,-2.08856 1.43024,-7.49893 1.59925,-12.02304 0.20153,-5.39449 -0.41203,-9.61668 -1.78262,-12.26712 -1.14946,-2.2228 -2.08992,-6.09779 -2.08992,-8.61108 0,-2.51329 1.29153,-4.97947 1.98532,-6.21729 2.71254,-4.83959 2.8682,-1.92324 3.34801,-4.60016 0,-1.14328 1.11222,-1.36904 1.66667,-2.0991 3.03128,-3.99134 2.33714,-2.27992 4.07014,-3.64625 0.30846,-0.55 0.16672,-4.40949 -0.315,-8.57665 -0.48171,-4.16715 -0.43659,-7.30517 0.10027,-6.97337 0.53687,0.33181 2.96403,-1.87071 5.39369,-4.89448 2.42966,-3.02376 6.32424,-5.99362 8.12782,-7.41675 5.81535,-4.58864 3.86804,-2.49186 12.01703,-6.98272 4.56699,-2.61297 7.09957,-4.96589 7.2316,-6.7186 0.11175,-1.48354 2.06122,-6.5905 4.33215,-11.34881 l 6.61574,-13.47957 c 1.72137,-2.36723 -0.62468,1.1178 2.04393,-3.0513 1.15325,-1.80169 3.20773,-6.11637 6.1085,-8.9489 2.97011,-2.90023 5.27413,-6.42569 5.27413,-8.07013 0,-1.60605 0.93025,-3.27705 2.06722,-3.71335 1.13697,-0.4363 3.28777,-3.73023 4.77954,-7.31985 2.39404,-5.7607 3.27593,-6.61804 7.51514,-7.30597 2.70582,-0.43909 5.56733,-0.1449 6.55379,0.67379 1.38293,1.14773 1.78861,0.50802 1.93004,-3.04341 0.0985,-2.47313 0.0484,-6.99994 -0.11132,-10.05959 -0.24702,-4.73235 0.24567,-5.91422 3.29965,-7.91527 3.22641,-2.11403 3.52204,-2.95555 2.9187,-8.30836 -0.36924,-3.27584 -0.0768,-7.66147 0.64978,-9.74584 0.92312,-2.64805 3.14105,-4.59481 7.36211,-6.46199 3.32255,-1.46972 6.86472,-2.67221 7.8715,-2.67221 1.00678,0 -1.54904,-8.51783 -1.54904,-9.07869 0,-0.56086 2.15031,4.7457 0.6479,1.94253 -2.31224,-4.31414 -2.50466,-5.78446 -1.25324,-9.57628 0.92448,-2.80122 1.19949,-9.87638 0.734,-18.88358 -0.40943,-7.92219 -1.49547,-22.50398 -2.41342,-32.40398 -0.91796,-9.9 -1.62286,-27 -1.56643,-38 0.0746,-14.55214 0.69003,-21.81595 2.25918,-26.66667 1.38785,-4.29023 2.21756,-11.89482 2.32761,-21.33333 0.094,-8.06667 -0.14455,-19.64596 -0.53023,-25.73177 -0.70124,-11.065103 -0.70124,-11.065103 4.05829,-16.333333 3.94037,-4.361518 5.62435,-5.268231 9.78436,-5.268231 3.88852,0 5.51875,0.753804 7.20892,3.333333 1.62268,2.476519 3.35239,3.333334 6.72923,3.333334 3.44954,0 5.18202,0.89443 7.18733,3.710619 1.58525,2.226287 3.27626,8.047041 4.22727,14.551048 0.87179,5.96224 1.23819,14.04246 0.81422,17.95605 -0.42398,3.91359 -0.97874,10.11562 -1.23281,13.78228 -0.32281,4.65872 0.11138,7.09382 1.44158,8.08488 1.21021,0.90165 2.34206,5.74467 3.10752,13.29657 1.00368,9.90221 0.84857,12.62735 -0.93237,16.3804 -1.79347,3.77946 -2.11194,9.74597 -1.98423,37.17479 0.0945,20.29726 0.69086,33.6794 1.57445,35.33039 0.86047,1.60781 1.07219,5.67431 0.53596,10.29445 -0.73962,6.37266 -0.43065,8.39292 1.86651,12.20434 1.51408,2.51213 4.51958,8.03883 6.67889,12.28155 2.99812,5.89082 3.74607,8.82303 3.1646,12.40624 -0.4188,2.58071 -0.15232,6.0094 0.59216,7.6193 0.74448,1.6099 2.05207,4.42709 2.90575,6.26042 0.85367,1.83334 2.33165,4.6792 3.28439,6.32415 0.95273,1.64495 2.63778,4.04495 3.74454,5.33334 1.10676,1.28838 2.38466,3.39251 2.83978,4.67585 0.52415,1.47798 -0.0405,1.57506 1.82233,3.11458 l 0.13451,0.39592 c 0.14931,1.32129 0.84377,2.80437 1.53815,4.93995 0.69437,2.13558 1.54495,10.95481 1.89017,19.59828 0.57783,14.46743 0.97955,16.42621 5.05871,24.66666 3.73489,7.545 4.56113,10.94125 5.25919,21.61794 0.45549,6.96666 1.55964,18.33116 2.45367,25.25443 0.89404,6.92328 2.42638,15.02328 3.40521,18 0.97883,2.97673 1.76806,7.21223 1.75384,9.41223 -0.0142,2.2 0.0389,6.88541 0.11811,10.41202 0.0792,3.52662 0.64395,6.10301 1.25506,5.72532 0.61112,-0.37768 1.2011,0.0369 1.31107,0.92131 0.10998,0.88441 0.57825,3.55915 1.04059,5.94386 0.57171,2.9488 0.14312,5.40039 -1.33976,7.66355 -2.04842,3.12629 -2.01021,3.66128 0.63133,8.83913 2.14547,4.20546 2.63557,6.9707 2.06829,11.66979 -0.40889,3.38709 -0.20312,7.02603 0.45727,8.08651 0.69925,1.12289 0.70869,2.84749 0.0226,4.12942 -0.71256,1.33143 -0.59347,4.1061 0.30138,7.02177 0.8137,2.65128 1.8357,4.60034 2.27111,4.33124 0.43541,-0.2691 0.87629,0.80343 0.97972,2.3834 0.10343,1.57998 0.49359,6.92111 0.86702,11.86919 0.4588,6.07925 0.22668,8.71697 -0.71585,8.13446 -0.93868,-0.58014 -1.03757,0.40207 -0.30242,3.00349 0.60082,2.12605 1.22254,5.40971 1.30623,7.30104 0.22399,5.06178 -0.16601,7.34349 -0.0565,7.82214 0.4275,0.6917 0.98121,3.98178 1.23047,7.31129 0.9423,4.26933 2.7209,11.77441 3.02245,12.24074 1.41207,2.12135 3.01328,5.20704 4.05655,6.52366 3.99006,5.0355 2.60458,3.23009 4.90248,7.01936 2.58196,3.36619 2.05264,3.47152 3.47975,4.9672 0.7453,0.46062 1.35508,2.26667 1.35508,4.01344 0,1.74678 0.73719,3.2815 1.04763,4.04525 0.29505,0.72589 0.30923,1.65204 0.66756,2.88285 0.43297,1.48707 0.30387,0.0607 0.72487,1.21194 0.6069,1.65936 0.9621,2.04881 1.5935,3.02577 0.7108,1.1 0.4351,-0.10968 1.4429,1.6372 1.0508,1.82169 1.4913,1.42823 1.7353,1.92118 0.485,0.97987 1.5868,2.13414 1.7479,5.60499 0.1612,3.47084 0.9112,6.51667 1.6667,6.7685 0.7555,0.25183 1.3736,1.34329 1.3736,2.42546 2.2096,0.0173 2.6396,7.52345 4.035,10.54908 4.8822,10.08536 0.4003,9.82916 -1.3075,3.48702 z M 78.052913,631.00435 c -1.0655,1.3996 -1.18752,-1.64423 0.63298,-3.11838 1.57957,-1.27906 3.07359,-4.42994 3.45997,-7.29709 0.37401,-2.77531 1.39346,-6.42118 2.26545,-8.10194 0.87198,-1.68076 4.86835,-5.73301 8.8808,-9.00499 6.842267,-5.57957 7.685877,-6.32862 7.273497,-11.81177 -0.651347,-8.66044 -2.260817,-7.91719 -1.931217,-10.55164 1.424907,-11.38895 2.421607,-0.53958 0.88818,-4.53559 -0.46827,-1.2203 -0.33325,-2.21873 0.30004,-2.21873 0.633287,0 1.508467,2.55 1.944837,5.66667 0.43637,3.11666 1.00946,7.76666 1.27354,10.33333 0.30221,2.9373 -0.45892,6.2476 -2.0539,8.93279 -1.393717,2.34637 -4.604227,5.54558 -7.134477,7.10936 -2.53025,1.56378 -5.50001,4.12753 -6.59946,5.69722 -1.09945,1.56969 -1.99901,4.88386 -1.99901,7.36483 0,2.75329 -1.18722,5.92179 -3.04706,8.13208 -1.67589,1.99168 -3.58279,2.65331 -4.15417,3.40385 z m 21.45323,-59.95462 c 0.22477,-1.53824 -1.08906,-5.03443 0.0257,-4.77003 2.139927,0.50756 0.46777,8.67663 0.0247,9.11969 -0.44306,0.44305 -0.30325,-2.61915 -0.0504,-4.34966 z m -0.91866,-7.27352 c 0,-2.15672 0.51439,-4.23922 1.1431,-4.62779 0.628707,-0.38856 1.064547,-4.06892 0.968537,-8.17858 -0.16059,-6.87382 -3.915147,-15.27603 -4.203897,-15.64424 -0.13385,-0.91841 9.160087,-12.34815 3.727857,-1.91822 l 1.9415,16.13565 c -0.43669,1.138 -0.31784,2.36336 0.26411,2.72303 0.58194,0.35966 0.45542,3.97888 -0.28118,8.0427 -0.73659,4.06382 -1.83894,7.38876 -2.449647,7.38876 -0.61072,0 -1.11039,-1.76459 -1.11039,-3.92131 z m 2.314087,-34.20904 c 0.0561,-0.61739 -0.47417,-1.63836 -0.0796,-2.66667 0.39459,-1.0283 4.50282,-9.27866 1.90813,-1.86964 -0.21645,0.61806 0.15082,1.45997 0.15082,2.92663 0,1.46667 -0.69498,1.49682 -1.43607,3.1866 -1.08387,1.95222 -0.62095,-0.72268 -0.54328,-1.57692 z m 2.45006,-5.81343 c -2.09022,1.4669 -0.98593,1.61754 -0.195,-1.8343 0.33688,-1.47023 2.06369,-1.72022 1.61103,-2.89982 -0.41974,-1.09382 -0.39478,-0.45553 0.57018,-1.98876 8.61887,-13.69458 1.66471,0.86355 2.06972,1.91901 0.40502,1.05546 -0.73868,1.02107 -1.35005,2.0683 -0.70382,1.20559 0.35067,0.59051 -2.70588,2.73557 z"
       id="path1"
       sodipodi:nodetypes="csssccsssssscccccssccssssccssssscccssssssssssccssssssssscsssssssccssssssssssssssssssccssssssssssssssssssssscsssccsssssssssscsssscssssccsccssssssssssssssssssssssssssssssssssssssssssssssssssscssssssssssssssssssccssssssssssssssssssscsssssssssssssssssssssssssssssssssssssssccssssssssssssssssssccssssssscssssssssssssssssssssssssssssssssccsssssssssssssssssssssssssssssssssssssssssssssccsssssssssssssssssssssssssssssssscssssssssssssssssssssssssssssssssssccssssssssssssssssss" />
  </g>
</svg>
